<svg xmlns="http://www.w3.org/2000/svg" width="1600" height="486" viewBox="0 0 1600 486" data-project="svg-golden-grid-wide"><rect width="100%" height="100%" fill="#141414"/><g data-grid="true"><line x1="0.00" y1="0" x2="0.00" y2="486.08" stroke="#232323" stroke-width="1"/><line x1="40.51" y1="0" x2="40.51" y2="486.08" stroke="#333333" stroke-width="1"/><line x1="81.01" y1="0" x2="81.01" y2="486.08" stroke="#232323" stroke-width="1"/><line x1="121.52" y1="0" x2="121.52" y2="486.08" stroke="#232323" stroke-width="1"/><line x1="162.03" y1="0" x2="162.03" y2="486.08" stroke="#232323" stroke-width="1"/><line x1="202.53" y1="0" x2="202.53" y2="486.08" stroke="#232323" stroke-width="1"/><line x1="243.04" y1="0" x2="243.04" y2="486.08" stroke="#232323" stroke-width="1"/><line x1="283.54" y1="0" x2="283.54" y2="486.08" stroke="#232323" stroke-width="1"/><line x1="324.05" y1="0" x2="324.05" y2="486.08" stroke="#232323" stroke-width="1"/><line x1="364.56" y1="0" x2="364.56" y2="486.08" stroke="#232323" stroke-width="1"/><line x1="405.06" y1="0" x2="405.06" y2="486.08" stroke="#232323" stroke-width="1"/><line x1="445.57" y1="0" x2="445.57" y2="486.08" stroke="#232323" stroke-width="1"/><line x1="486.08" y1="0" x2="486.08" y2="486.08" stroke="#232323" stroke-width="1"/><line x1="526.58" y1="0" x2="526.58" y2="486.08" stroke="#232323" stroke-width="1"/><line x1="567.09" y1="0" x2="567.09" y2="486.08" stroke="#232323" stroke-width="1"/><line x1="607.59" y1="0" x2="607.59" y2="486.08" stroke="#232323" stroke-width="1"/><line x1="648.10" y1="0" x2="648.10" y2="486.08" stroke="#232323" stroke-width="1"/><line x1="688.61" y1="0" x2="688.61" y2="486.08" stroke="#232323" stroke-width="1"/><line x1="729.11" y1="0" x2="729.11" y2="486.08" stroke="#232323" stroke-width="1"/><line x1="769.62" y1="0" x2="769.62" y2="486.08" stroke="#232323" stroke-width="1"/><line x1="810.13" y1="0" x2="810.13" y2="486.08" stroke="#232323" stroke-width="1"/><line x1="850.63" y1="0" x2="850.63" y2="486.08" stroke="#232323" stroke-width="1"/><line x1="891.14" y1="0" x2="891.14" y2="486.08" stroke="#232323" stroke-width="1"/><line x1="931.65" y1="0" x2="931.65" y2="486.08" stroke="#232323" stroke-width="1"/><line x1="972.15" y1="0" x2="972.15" y2="486.08" stroke="#232323" stroke-width="1"/><line x1="1012.66" y1="0" x2="1012.66" y2="486.08" stroke="#232323" stroke-width="1"/><line x1="1053.16" y1="0" x2="1053.16" y2="486.08" stroke="#232323" stroke-width="1"/><line x1="1093.67" y1="0" x2="1093.67" y2="486.08" stroke="#232323" stroke-width="1"/><line x1="1134.18" y1="0" x2="1134.18" y2="486.08" stroke="#232323" stroke-width="1"/><line x1="1174.68" y1="0" x2="1174.68" y2="486.08" stroke="#232323" stroke-width="1"/><line x1="1215.19" y1="0" x2="1215.19" y2="486.08" stroke="#232323" stroke-width="1"/><line x1="1255.70" y1="0" x2="1255.70" y2="486.08" stroke="#232323" stroke-width="1"/><line x1="1296.20" y1="0" x2="1296.20" y2="486.08" stroke="#232323" stroke-width="1"/><line x1="1336.71" y1="0" x2="1336.71" y2="486.08" stroke="#232323" stroke-width="1"/><line x1="1377.22" y1="0" x2="1377.22" y2="486.08" stroke="#232323" stroke-width="1"/><line x1="1417.72" y1="0" x2="1417.72" y2="486.08" stroke="#232323" stroke-width="1"/><line x1="1458.23" y1="0" x2="1458.23" y2="486.08" stroke="#232323" stroke-width="1"/><line x1="1498.73" y1="0" x2="1498.73" y2="486.08" stroke="#232323" stroke-width="1"/><line x1="1539.24" y1="0" x2="1539.24" y2="486.08" stroke="#232323" stroke-width="1"/><line x1="1579.75" y1="0" x2="1579.75" y2="486.08" stroke="#232323" stroke-width="1"/><line x1="0" y1="486.08" x2="1600.00" y2="486.08" stroke="#232323" stroke-width="1"/><line x1="0" y1="445.57" x2="1600.00" y2="445.57" stroke="#333333" stroke-width="1"/><line x1="0" y1="405.06" x2="1600.00" y2="405.06" stroke="#232323" stroke-width="1"/><line x1="0" y1="364.56" x2="1600.00" y2="364.56" stroke="#232323" stroke-width="1"/><line x1="0" y1="324.05" x2="1600.00" y2="324.05" stroke="#232323" stroke-width="1"/><line x1="0" y1="283.54" x2="1600.00" y2="283.54" stroke="#232323" stroke-width="1"/><line x1="0" y1="243.04" x2="1600.00" y2="243.04" stroke="#232323" stroke-width="1"/><line x1="0" y1="202.53" x2="1600.00" y2="202.53" stroke="#232323" stroke-width="1"/><line x1="0" y1="162.03" x2="1600.00" y2="162.03" stroke="#232323" stroke-width="1"/><line x1="0" y1="121.52" x2="1600.00" y2="121.52" stroke="#232323" stroke-width="1"/><line x1="0" y1="81.01" x2="1600.00" y2="81.01" stroke="#232323" stroke-width="1"/><line x1="0" y1="40.51" x2="1600.00" y2="40.51" stroke="#232323" stroke-width="1"/><line x1="0" y1="0.00" x2="1600.00" y2="0.00" stroke="#232323" stroke-width="1"/></g><g data-layer="rejilla"><line x1="40.51" y1="445.57" x2="1559.49" y2="445.57" stroke="#FFFFFF" stroke-width="1.40" fill="none" data-id="gw-h"/><line x1="40.51" y1="445.57" x2="40.51" y2="40.51" stroke="#FFFFFF" stroke-width="1.40" fill="none" data-id="gw-v"/></g></svg>