<svg xmlns="http://www.w3.org/2000/svg" width="1600" height="468" viewBox="0 0 1600 468" data-project="svg-golden-grid-large"><rect width="100%" height="100%" fill="#141414"/><g data-grid="true"><line x1="-39.02" y1="0" x2="-39.02" y2="468.29" stroke="#232323" stroke-width="1"/><line x1="39.02" y1="0" x2="39.02" y2="468.29" stroke="#232323" stroke-width="1"/><line x1="117.07" y1="0" x2="117.07" y2="468.29" stroke="#232323" stroke-width="1"/><line x1="195.12" y1="0" x2="195.12" y2="468.29" stroke="#232323" stroke-width="1"/><line x1="273.17" y1="0" x2="273.17" y2="468.29" stroke="#232323" stroke-width="1"/><line x1="351.22" y1="0" x2="351.22" y2="468.29" stroke="#232323" stroke-width="1"/><line x1="429.27" y1="0" x2="429.27" y2="468.29" stroke="#333333" stroke-width="1"/><line x1="507.32" y1="0" x2="507.32" y2="468.29" stroke="#232323" stroke-width="1"/><line x1="585.37" y1="0" x2="585.37" y2="468.29" stroke="#232323" stroke-width="1"/><line x1="663.41" y1="0" x2="663.41" y2="468.29" stroke="#232323" stroke-width="1"/><line x1="741.46" y1="0" x2="741.46" y2="468.29" stroke="#232323" stroke-width="1"/><line x1="819.51" y1="0" x2="819.51" y2="468.29" stroke="#232323" stroke-width="1"/><line x1="897.56" y1="0" x2="897.56" y2="468.29" stroke="#232323" stroke-width="1"/><line x1="975.61" y1="0" x2="975.61" y2="468.29" stroke="#232323" stroke-width="1"/><line x1="1053.66" y1="0" x2="1053.66" y2="468.29" stroke="#232323" stroke-width="1"/><line x1="1131.71" y1="0" x2="1131.71" y2="468.29" stroke="#232323" stroke-width="1"/><line x1="1209.76" y1="0" x2="1209.76" y2="468.29" stroke="#232323" stroke-width="1"/><line x1="1287.80" y1="0" x2="1287.80" y2="468.29" stroke="#232323" stroke-width="1"/><line x1="1365.85" y1="0" x2="1365.85" y2="468.29" stroke="#232323" stroke-width="1"/><line x1="1443.90" y1="0" x2="1443.90" y2="468.29" stroke="#232323" stroke-width="1"/><line x1="1521.95" y1="0" x2="1521.95" y2="468.29" stroke="#232323" stroke-width="1"/><line x1="1600.00" y1="0" x2="1600.00" y2="468.29" stroke="#232323" stroke-width="1"/><line x1="0" y1="507.32" x2="1600.00" y2="507.32" stroke="#232323" stroke-width="1"/><line x1="0" y1="429.27" x2="1600.00" y2="429.27" stroke="#333333" stroke-width="1"/><line x1="0" y1="351.22" x2="1600.00" y2="351.22" stroke="#232323" stroke-width="1"/><line x1="0" y1="273.17" x2="1600.00" y2="273.17" stroke="#232323" stroke-width="1"/><line x1="0" y1="195.12" x2="1600.00" y2="195.12" stroke="#232323" stroke-width="1"/><line x1="0" y1="117.07" x2="1600.00" y2="117.07" stroke="#232323" stroke-width="1"/><line x1="0" y1="39.02" x2="1600.00" y2="39.02" stroke="#232323" stroke-width="1"/></g><g data-layer="rejilla"><line x1="39.02" y1="429.27" x2="1560.98" y2="429.27" stroke="#FFFFFF" stroke-width="1.40" fill="none" data-id="gl-h"/><line x1="39.02" y1="429.27" x2="39.02" y2="39.02" stroke="#FFFFFF" stroke-width="1.40" fill="none" data-id="gl-v"/></g></svg>